<?xml version="1.0" encoding="utf-8"?>
<!-- Generator: Adobe Illustrator 25.0.0, SVG Export Plug-In . SVG Version: 6.00 Build 0)  -->
<svg version="1.1" id="图层_1" xmlns="http://www.w3.org/2000/svg" xmlns:xlink="http://www.w3.org/1999/xlink" x="0px" y="0px"
	 viewBox="0 0 841.89 595.28" style="enable-background:new 0 0 841.89 595.28;" xml:space="preserve">
<style type="text/css">
	.st0{stroke:#000000;stroke-width:1.3907;stroke-miterlimit:10;}
	.st1{stroke:#000000;stroke-width:0.9227;stroke-miterlimit:10;}
</style>
<path class="st0" d="M232.72,214.25c0,0,60.77,7.93,85.87,30.38s25.1,96.44,258.92,198.16c0,0-363.29-251-30.38-268.17
	C547.13,174.62,421.63,157.44,232.72,214.25z"/>
<path class="st1" d="M448.18,209.66c-3.15,0.91-6.27,1.84-9.36,2.78c73.87-19.97,137.25-19.12,143.49,2.5
	c6.48,22.44-51.01,58.75-128.41,81.1s-145.4,22.28-151.88-0.16c-2.23-7.72,3.11-17.08,14.22-26.94
	c-23.93,17.37-36.45,34.53-32.51,48.19c8.83,30.58,96.77,32.05,196.42,3.27s173.27-76.89,164.44-107.47
	C635.77,182.35,547.83,180.89,448.18,209.66z"/>
</svg>
